PathFileType	4	(X/Y/Z)	C:/Users/opensim2020/Desktop/walking_exp_matlab/subject01_walking13_straight_01.trc																																																																																																																												
DataRate	CameraRate	NumFrames	NumMarkers	Units	OrigDataRate	OrigDataStartFrame	OrigNumFrames																																																																																																																								
100	100	8	42	mm	100	637	142																																																																																																																								
Frame#	Time	LFHD			RFHD			LBHD			RBHD			C7			T10			CLAV			STRN			RBAK			LSHO			LUPA			LELB			LFRM			LWRA			LWRB			LFIN			RSHO			RUPA			RELB			RFRM			RWRA			RWRB			RFIN			LASI			RASI			LPSI			RPSI			LTHI			LKNE			LTIB			LANK			LHEE			LTOE			RTHI			RKNE			RTIB			RANK			RHEE			RTOE			*39			*40			*41		
		X1	Y1	Z1	X2	Y2	Z2	X3	Y3	Z3	X4	Y4	Z4	X5	Y5	Z5	X6	Y6	Z6	X7	Y7	Z7	X8	Y8	Z8	X9	Y9	Z9	X10	Y10	Z10	X11	Y11	Z11	X12	Y12	Z12	X13	Y13	Z13	X14	Y14	Z14	X15	Y15	Z15	X16	Y16	Z16	X17	Y17	Z17	X18	Y18	Z18	X19	Y19	Z19	X20	Y20	Z20	X21	Y21	Z21	X22	Y22	Z22	X23	Y23	Z23	X24	Y24	Z24	X25	Y25	Z25	X26	Y26	Z26	X27	Y27	Z27	X28	Y28	Z28	X29	Y29	Z29	X30	Y30	Z30	X31	Y31	Z31	X32	Y32	Z32	X33	Y33	Z33	X34	Y34	Z34	X35	Y35	Z35	X36	Y36	Z36	X37	Y37	Z37	X38	Y38	Z38	X39	Y39	Z39	X40	Y40	Z40	X41	Y41	Z41	X42	Y42	Z42
																																																																																																																															
36	0.35	-240.57732	1679.82373	-1072.27844	-221.76828	1683.53467	-960.56116	-353.99353	1629.68127	-1060.11792	-336.75201	1631.7804	-940.70233	-381.7869	1439.05884	-1019.0033	-423.89764	1147.40308	-1008.13965	-238.12662	1370.28076	-1024.03589	-197.97975	1214.2467	-1034.05237	-437.37985	1245.79504	-938.4118	-310.3905	1402.18481	-1179.93921	-349.36377	1229.49353	-1274.3208	-351.90164	1078.04773	-1301.25879	-263.82825	997.31836	-1322.09619	-139.20285	940.16144	-1298.3927	-182.08055	906.71808	-1323.37061	-105.79838	874.09662	-1334.54224	-296.74301	1398.09546	-870.46448	-361.0629	1203.71997	-764.75128	-370.83853	1077.39551	-763.05078	-343.49908	958.00964	-740.00098	-269.48132	840.12604	-773.09583	-307.24866	840.62537	-729.31464	-271.44522	762.80859	-736.03345	-267.25528	931.0462	-1126.73877	-252.83261	935.54248	-910.2395	-447.78964	953.3338	-1063.82898	-438.41974	959.54517	-918.67072	-282.95709	603.3103	-1202.63293	-290.02475	470.09738	-1200.63721	-443.37659	367.33078	-1202.552	-616.92426	237.90607	-1146.0105	-656.45978	248.80589	-1084.24512	-576.36029	96.0284	-1170.5188	-298.25925	602.32019	-861.19452	-277.8613	445.7388	-894.57825	-328.68118	276.70395	-893.55164	-353.56705	75.36549	-950.953	-404.70023	39.74483	-1000.56323	-213.94904	34.1139	-953.47583	-235.96944	1716.91626	-981.50366	1973.15784	1023.64526	-3101.8064	2012.5719	1022.14911	-3140.71899
37	0.36	-227.2831	1680.52881	-1071.96191	-208.33484	1684.18726	-960.18842	-340.97946	1631.07117	-1059.55432	-323.5701	1633.18762	-940.11981	-369.84036	1440.49036	-1018.08795	-412.09439	1148.55469	-1006.97882	-226.14938	1371.11719	-1023.52094	-186.24364	1215.14893	-1033.44995	-425.64389	1247.24817	-937.23438	-298.87247	1403.31226	-1179.31091	-339.4711	1230.41467	-1272.8916	-343.9444	1078.88525	-1298.76648	-258.14285	995.84015	-1319.82629	-135.07782	935.18457	-1296.5094	-179.06807	902.90112	-1321.21265	-103.75089	867.93774	-1332.26099	-284.20523	1399.39404	-869.77521	-347.46097	1204.81714	-763.52191	-356.27255	1078.24426	-761.45782	-325.78278	959.22937	-739.43274	-248.73105	843.71649	-773.61334	-286.49103	842.91553	-729.79382	-248.16908	766.34485	-736.60791	-255.14894	932.60596	-1125.59705	-241.46378	936.07184	-908.85944	-435.75406	954.84991	-1063.57629	-427.28165	960.28082	-918.35004	-263.7742	606.45172	-1202.47791	-267.23126	473.34552	-1200.47339	-418.77942	368.64063	-1200.92004	-589.07483	234.45509	-1143.81616	-629.64215	243.17703	-1081.97046	-541.9762	95.08517	-1168.81519	-291.7858	602.64612	-861.20001	-274.69104	445.78717	-894.02789	-327.55457	277.40271	-893.47968	-353.23303	76.1387	-951.09113	-404.60065	41.17887	-1000.80005	-213.82539	34.0008	-953.51868	-222.36383	1717.70618	-981.22797	1973.13	1023.54443	-3101.94775	2012.50989	1022.1662	-3140.63403
38	0.37	-213.94666	1681.02905	-1071.60083	-194.81313	1684.7146	-960.02026	-327.8895	1632.2948	-1059.06677	-310.3143	1634.45679	-939.65723	-357.83179	1441.51758	-1017.1283	-400.38751	1149.54712	-1005.87073	-214.15736	1371.90405	-1023.04742	-174.53943	1215.87695	-1032.8446	-413.52408	1248.33508	-936.05182	-287.35583	1404.23315	-1178.57104	-329.54196	1231.13574	-1271.47986	-335.97769	1079.59766	-1296.27966	-252.55725	994.30457	-1317.51746	-131.21921	930.17218	-1294.73364	-176.05005	899.27533	-1319.17346	-102.07748	862.01965	-1330.52759	-271.86615	1400.36743	-869.08313	-334.05164	1205.76526	-762.37305	-341.86639	1078.8689	-759.95685	-308.09647	960.37177	-738.82672	-227.56767	847.5022	-773.95868	-265.19821	845.25073	-730.11938	-224.79881	770.11981	-737.28076	-243.19531	934.20978	-1124.47803	-230.32106	936.37451	-907.62225	-424.01584	956.11584	-1063.42371	-416.24304	961.32721	-918.16901	-245.13364	609.52661	-1202.28052	-245.15993	476.55222	-1199.91968	-394.40192	369.49088	-1199.08459	-560.46326	229.38081	-1141.8562	-601.78241	236.20868	-1079.95691	-505.94577	93.13364	-1167.44971	-285.33347	602.99017	-860.94067	-271.61365	445.86517	-894.09985	-325.99515	277.9827	-893.52869	-353.00977	76.60616	-951.2854	-404.31726	42.35769	-1000.9812	-213.6519	34.22378	-953.25421	-208.65807	1718.31116	-981.0014	1973.06677	1023.52893	-3101.92383	2012.47778	1022.01605	-3140.72656
39	0.38	-200.58461	1681.38245	-1071.43604	-181.25761	1685.16235	-959.86682	-314.72116	1633.29089	-1058.60364	-297.12854	1635.62158	-939.29834	-345.57394	1442.24365	-1016.27386	-388.6991	1150.44971	-1004.79095	-202.23509	1372.50635	-1022.57288	-162.87927	1216.50708	-1032.25818	-401.43338	1249.29553	-934.86615	-275.87964	1404.98291	-1177.99719	-319.48828	1231.73474	-1270.17041	-328.0864	1080.1687	-1293.78333	-247.04169	992.75281	-1315.25708	-127.44482	925.16919	-1293.01953	-173.42369	895.66107	-1317.28674	-100.55695	855.70184	-1328.36438	-259.34872	1401.13013	-868.53748	-320.95261	1206.53979	-761.31262	-327.59058	1079.37854	-758.58203	-291.05389	961.32544	-738.38257	-206.21342	851.83173	-774.24677	-244.7784	847.87238	-730.69379	-201.52173	774.1416	-738.08899	-231.27252	935.76709	-1123.36951	-218.93988	936.66394	-906.26965	-412.14081	957.58221	-1063.1792	-404.97504	961.93744	-918.03717	-227.11591	612.62469	-1202.33667	-223.99582	479.86679	-1199.59045	-370.33383	369.98328	-1197.46631	-530.88605	222.97087	-1140.16052	-572.9707	227.5098	-1078.24512	-469.18668	90.26275	-1165.63538	-278.67816	603.33978	-860.84595	-268.25058	446.0726	-893.80658	-323.87402	278.78311	-893.59003	-352.39786	77.56118	-951.48364	-404.24591	43.92434	-1001.29816	-213.53757	34.19017	-953.22791	-194.93544	1718.77209	-980.90289	1973.10181	1023.539	-3101.948	2012.50452	1022.09271	-3140.75464
40	0.39	-187.22365	1681.61731	-1071.32056	-167.68343	1685.32959	-959.8811	-301.83389	1634.34509	-1058.3927	-283.85153	1636.64832	-939.03412	-333.71643	1443.19629	-1015.45599	-376.98999	1151.12769	-1003.68359	-190.34157	1373.04236	-1022.54565	-151.23651	1216.9718	-1031.75549	-389.42139	1250.1145	-933.57355	-264.2915	1405.53503	-1177.42749	-309.39984	1232.21558	-1268.91003	-320.22394	1080.61987	-1291.30994	-241.66714	991.17657	-1313.00818	-123.82523	920.27856	-1291.37366	-170.71164	892.04492	-1315.19995	-99.21478	849.7406	-1326.48486	-246.9689	1401.90857	-867.99005	-308.07281	1207.22534	-760.34052	-313.45105	1079.74426	-757.22046	-273.4614	962.43201	-737.92957	-186.30341	855.6059	-775.2099	-223.60811	850.28552	-731.20605	-178.16322	778.36383	-739.05292	-219.45111	937.27539	-1122.42249	-207.48793	936.89349	-905.1073	-400.44821	958.67841	-1063.02661	-394.03052	963.10339	-917.86273	-209.34991	615.5614	-1201.98572	-203.29424	483.12366	-1198.8606	-346.20172	369.42868	-1195.60486	-500.51404	215.30251	-1138.7002	-543.07599	217.70937	-1076.67603	-431.0387	86.47451	-1164.23743	-272.18713	603.84656	-860.77832	-264.44278	446.45041	-893.16498	-321.76343	279.80615	-893.66443	-352.0032	78.78364	-951.5412	-404.00534	45.38739	-1001.6955	-213.42221	34.12016	-953.18988	-181.20827	1719.0575	-980.8587	1973.06702	1023.50806	-3101.92334	2012.49072	1022.078	-3140.83765
41	0.4	-173.84401	1681.69055	-1071.37366	-154.12367	1685.52258	-959.79291	-288.68491	1635.18726	-1058.11389	-270.6217	1637.5127	-938.8501	-321.58899	1443.96008	-1014.70581	-365.29678	1151.76013	-1002.68042	-178.49564	1373.40894	-1022.0835	-139.63614	1217.32214	-1031.31494	-377.44556	1250.91821	-932.31934	-252.69563	1406.00012	-1176.96484	-299.36005	1232.56201	-1267.73291	-312.35919	1080.99927	-1288.88647	-236.3457	989.54987	-1310.83069	-120.34954	915.3786	-1289.75208	-168.22879	888.44629	-1313.15479	-98.10796	843.93341	-1324.67908	-234.49741	1402.45032	-867.54156	-295.28088	1207.7749	-759.47821	-299.47458	1079.99744	-755.99451	-255.74249	963.62573	-737.60394	-165.3334	860.1651	-775.90961	-202.93715	853.09753	-732.04846	-154.65771	782.79303	-740.10101	-207.69658	938.52258	-1121.56226	-196.95166	936.68286	-904.80493	-388.96628	959.61481	-1062.82214	-382.5249	963.6416	-917.7558	-191.79504	618.70215	-1201.93115	-183.12193	486.30597	-1198.04858	-322.02679	367.75076	-1194.12402	-469.30634	206.53159	-1137.30884	-512.12646	206.5374	-1075.30945	-392.68109	82.54293	-1163.16797	-265.37057	604.26624	-860.62854	-260.31049	446.81097	-893.362	-318.95505	280.63934	-893.8399	-351.8226	79.7244	-951.70905	-403.05069	46.57151	-1002.12305	-213.2849	34.08946	-953.1778	-167.4299	1719.32056	-980.90741	1973.21252	1023.35223	-3102.02246	2012.50293	1022.12433	-3140.90454
42	0.41	-160.39668	1681.59033	-1071.48083	-140.52362	1685.45203	-960.03955	-275.47162	1635.8606	-1057.89404	-257.27957	1638.36255	-938.6853	-309.44077	1444.48743	-1014.08539	-353.71469	1152.37793	-1001.65112	-166.62206	1373.74976	-1021.85602	-128.06796	1217.58569	-1030.88611	-365.53488	1251.61621	-931.12384	-241.10938	1406.2572	-1176.55322	-289.34836	1232.7926	-1266.62634	-304.48703	1081.21692	-1286.55261	-231.07436	987.86053	-1308.67053	-117.00526	910.47778	-1288.09302	-165.80415	884.88263	-1311.09534	-97.14037	838.16864	-1322.8335	-222.23495	1402.94727	-867.13116	-282.59186	1208.26514	-758.7348	-285.58215	1080.22351	-754.81049	-238.36798	964.73718	-737.30957	-145.16754	864.32629	-776.79395	-181.86911	855.82861	-732.73132	-131.82828	787.4184	-741.40118	-196.00101	939.5415	-1120.78479	-185.74817	936.6947	-903.84753	-377.47095	960.30585	-1062.64587	-371.66043	964.44336	-917.69916	-174.55626	621.42889	-1201.57031	-163.38135	489.2648	-1197.19067	-297.65244	364.90884	-1192.76697	-437.28708	196.8851	-1136.24536	-479.92386	194.23586	-1073.82959	-353.47681	78.10656	-1162.44617	-258.2876	604.65771	-860.31818	-255.45161	447.24155	-893.21497	-316.19946	281.66479	-893.98969	-350.92966	80.96575	-951.86377	-402.15805	47.75025	-1002.51874	-213.2057	34.03197	-953.13824	-153.75601	1719.17102	-981.37512	1973.05505	1023.51593	-3101.98755	2012.47461	1022.08502	-3140.63721
43	0.42	-146.93471	1681.41589	-1071.59314	-126.95274	1685.38013	-960.08569	-262.23285	1636.45642	-1057.87329	-243.9137	1638.97351	-938.65894	-297.25424	1444.92993	-1013.51721	-342.1145	1152.78918	-1000.87494	-154.89812	1373.82153	-1021.24695	-116.47127	1217.65173	-1030.54602	-353.68069	1252.22986	-930.07001	-229.50113	1406.42493	-1176.19824	-279.42783	1232.91138	-1265.5719	-296.48712	1081.45398	-1284.29309	-225.77744	986.12018	-1306.578	-113.78139	905.57544	-1286.4613	-163.37033	881.34265	-1309.0321	-96.17931	832.6134	-1321.02136	-210.11066	1403.25757	-866.68964	-269.94278	1208.5929	-758.04236	-271.77838	1080.29309	-753.73547	-221.01721	965.92188	-737.08856	-124.35427	868.8996	-777.38068	-161.02676	858.90308	-733.53772	-108.8299	792.33307	-742.78223	-184.30943	940.31244	-1120.15527	-174.32922	936.8736	-903.18298	-365.96533	960.80884	-1062.46509	-360.3092	965.15216	-917.59314	-157.40259	623.90289	-1201.0116	-144.01076	491.92261	-1196.01111	-273.08289	361.09009	-1191.61646	-404.44232	186.59848	-1135.27295	-447.05011	181.45695	-1072.82263	-313.88852	73.69749	-1162.37341	-251.13161	604.98718	-860.19135	-250.64207	447.38818	-893.2865	-313.32498	282.89163	-894.08868	-350.54059	82.35019	-951.9342	-403.64719	50.83668	-1002.50562	-213.12312	34.00223	-953.07391	-139.95543	1719.09106	-981.54248	1973.05444	1023.60962	-3101.99683	2012.55054	1022.14545	-3140.78833
